<?xml version="1.0" standalone="no"?>
<!DOCTYPE svg PUBLIC "-//W3C//DTD SVG 20010904//EN"
 "http://www.w3.org/TR/2001/REC-SVG-20010904/DTD/svg10.dtd">
<svg version="1.0" xmlns="http://www.w3.org/2000/svg"
 width="400.000000pt" height="403.000000pt" viewBox="0 0 400.000000 403.000000"
 preserveAspectRatio="xMidYMid meet">

<g transform="translate(0.000000,403.000000) scale(0.100000,-0.100000)"
fill="#000000" stroke="none">
<path d="M1756 3999 c-798 -103 -1457 -665 -1675 -1429 -16 -58 -34 -132 -41
-165 -6 -33 -13 -70 -16 -82 l-4 -23 703 0 703 0 16 33 c27 57 114 153 182
201 251 180 574 162 799 -45 35 -32 83 -88 107 -124 l42 -65 699 0 c485 0 699
3 699 11 0 34 -48 231 -80 329 -165 503 -530 924 -1008 1164 -186 93 -416 163
-629 191 -123 16 -384 18 -497 4z"/>
<path d="M1885 2387 c-93 -31 -163 -85 -213 -165 -137 -215 -33 -497 211 -573
181 -56 375 28 459 199 31 62 33 74 33 167 0 88 -3 107 -27 157 -37 80 -107
152 -186 190 -55 27 -77 32 -151 35 -52 2 -102 -2 -126 -10z m182 -152 c72
-21 136 -92 153 -167 33 -147 -75 -281 -225 -281 -133 0 -225 94 -225 230 1
74 25 129 80 175 64 56 130 69 217 43z"/>
<path d="M15 1773 c45 -273 96 -440 195 -641 199 -400 503 -705 895 -900 273
-135 520 -198 825 -209 935 -34 1764 586 2001 1497 21 84 49 233 49 268 l0 22
-688 0 -689 0 -18 -42 c-74 -171 -223 -307 -399 -365 -111 -36 -257 -37 -366
-4 -181 55 -321 176 -402 349 l-30 62 -689 0 -690 0 6 -37z"/>
</g>
</svg>
